<svg xmlns="http://www.w3.org/2000/svg" width="1200" height="630" viewBox="0 0 1200 630" role="img" aria-labelledby="title desc">
  <title id="title">10万円で学ぶ暗号資産ログ</title>
  <desc id="desc">年間10万円以内の暗号資産学習ログを表す、落ち着いた金融メディア風のOGP画像。</desc>
  <rect width="1200" height="630" fill="#f7faf8"/>
  <rect x="78" y="76" width="1044" height="478" rx="24" fill="#ffffff" stroke="#d9e3df" stroke-width="2"/>
  <rect x="122" y="124" width="104" height="104" rx="20" fill="#0f2f3f"/>
  <circle cx="158" cy="158" r="16" fill="#9ee6cf"/>
  <path d="M148 197h50M178 158h36" fill="none" stroke="#f3d38a" stroke-width="8" stroke-linecap="round"/>
  <text x="258" y="165" font-family="-apple-system,BlinkMacSystemFont,'Segoe UI',sans-serif" font-size="32" font-weight="700" fill="#0f2f3f">10万円で学ぶ暗号資産ログ</text>
  <text x="258" y="220" font-family="-apple-system,BlinkMacSystemFont,'Segoe UI',sans-serif" font-size="22" fill="#57717b">少額運用でWeb3・税務・相場サイクルを学ぶ個人記録</text>
  <rect x="122" y="314" width="956" height="18" rx="9" fill="#e8efed"/>
  <rect x="122" y="314" width="239" height="18" rx="9" fill="#0f6b7a"/>
  <rect x="366" y="314" width="239" height="18" rx="9" fill="#45a69a"/>
  <rect x="610" y="314" width="191" height="18" rx="9" fill="#9ee6cf"/>
  <rect x="806" y="314" width="143" height="18" rx="9" fill="#f3d38a"/>
  <rect x="954" y="314" width="96" height="18" rx="9" fill="#d98f5f"/>
  <text x="122" y="389" font-family="-apple-system,BlinkMacSystemFont,'Segoe UI',sans-serif" font-size="24" font-weight="700" fill="#0f2f3f">投資助言ではなく、実体験で学ぶための記録</text>
  <text x="122" y="433" font-family="-apple-system,BlinkMacSystemFont,'Segoe UI',sans-serif" font-size="20" fill="#57717b">BTC / XRP / ETH / SOL / ADA / SUI を年間10万円以内で観察します。</text>
</svg>
